<svg width="512" height="512" viewBox="0 0 512 512" fill="none" xmlns="http://www.w3.org/2000/svg">
<rect width="512" height="512" fill="#E6E7D7"/>
<path d="M275.042 409.216L350.147 372.866C383.382 356.779 400 348.736 400 336V176C400 163.264 383.382 155.221 350.147 139.135L275.042 102.784C265.698 98.2614 261.026 96 256 96C250.974 96 246.302 98.2613 236.958 102.784L161.852 139.135C128.617 155.221 112 163.264 112 176V336C112 348.736 128.617 356.779 161.852 372.864L236.958 409.216C246.302 413.739 250.974 416 256 416C261.026 416 265.698 413.739 275.042 409.216Z" fill="#1F1F1D" stroke="#F29337" stroke-width="24" stroke-linejoin="round"/>
<path d="M276.285 184.012C277.393 180.881 277.995 177.512 277.995 174.001C277.995 157.432 264.564 144 247.994 144C231.425 144 217.993 157.432 217.993 174.001C217.993 177.512 218.596 180.881 219.703 184.012C196.855 184.095 184.661 184.906 176.778 192.789C168.895 200.672 168.084 212.864 168 235.709C171.125 234.605 174.488 234.004 177.991 234.004C194.56 234.004 207.992 247.436 207.992 264.006C207.992 280.576 194.56 294.007 177.991 294.007C174.488 294.007 171.125 293.407 168 292.303C168.084 315.149 168.895 327.34 176.778 335.223C184.66 343.105 196.852 343.917 219.697 344C218.593 340.875 217.993 337.513 217.993 334.009C217.993 317.44 231.425 304.008 247.994 304.008C264.564 304.008 277.995 317.44 277.995 334.009C277.995 337.513 277.395 340.875 276.292 344C299.137 343.917 311.329 343.105 319.212 335.223C327.094 327.339 327.905 315.146 327.989 292.297C331.119 293.404 334.488 294.007 337.999 294.007C354.568 294.007 368 280.576 368 264.006C368 247.436 354.568 234.004 337.999 234.004C334.488 234.004 331.119 234.608 327.989 235.715C327.905 212.866 327.094 200.673 319.212 192.789C311.328 184.906 299.135 184.095 276.285 184.012Z" fill="#ED772F"/>
</svg>
